<svg width="22" height="17" viewBox="0 0 22 17" fill="none" xmlns="http://www.w3.org/2000/svg">
<path d="M9.35 13.5L15 7.85L13.55 6.4L9.325 10.625L7.225 8.525L5.8 9.95L9.35 13.5ZM5.5 16.5C3.98333 16.5 2.6875 15.975 1.6125 14.925C0.5375 13.875 0 12.5917 0 11.075C0 9.775 0.391667 8.61667 1.175 7.6C1.95833 6.58333 2.98333 5.93333 4.25 5.65C4.66667 4.11667 5.5 2.875 6.75 1.925C8 0.975 9.41667 0.5 11 0.5C12.95 0.5 14.6042 1.17917 15.9625 2.5375C17.3208 3.89583 18 5.55 18 7.5C19.15 7.63333 20.1042 8.12917 20.8625 8.9875C21.6208 9.84583 22 10.85 22 12C22 13.25 21.5625 14.3125 20.6875 15.1875C19.8125 16.0625 18.75 16.5 17.5 16.5H5.5ZM5.5 14.5H17.5C18.2 14.5 18.7917 14.2583 19.275 13.775C19.7583 13.2917 20 12.7 20 12C20 11.3 19.7583 10.7083 19.275 10.225C18.7917 9.74167 18.2 9.5 17.5 9.5H16V7.5C16 6.11667 15.5125 4.9375 14.5375 3.9625C13.5625 2.9875 12.3833 2.5 11 2.5C9.61667 2.5 8.4375 2.9875 7.4625 3.9625C6.4875 4.9375 6 6.11667 6 7.5H5.5C4.53333 7.5 3.70833 7.84167 3.025 8.525C2.34167 9.20833 2 10.0333 2 11C2 11.9667 2.34167 12.7917 3.025 13.475C3.70833 14.1583 4.53333 14.5 5.5 14.5Z" fill="white"/>
</svg>
